<?xml version="1.0" encoding="UTF-8"?>
<svg id="Layer_1" data-name="Layer 1" xmlns="http://www.w3.org/2000/svg" viewBox="0 0 1080 1080">
  <path d="M813.887,454.024c-56.042-151.751-236.864-223.014-266.422-196.193-8.551,7.759-1.952,21.467-15.367,39.984-18.505,25.545-48.336,23.36-76.573,33.692-56.224,20.573-96.616,87.279-103.374,140.129-7.892,61.718,32.133,88.514,9.953,135.534-13.333,28.265-31.65,26.75-44.411,55.133-19.293,42.908-.389,96.408,15.315,119.454,60.06,88.14,272.734,112.523,399.817,0,91.655-81.154,121.506-218.218,81.062-327.733Z" fill="#0f5c94"/>
  <path d="M743.912,359.073c-1.734-36.692-15.277-71.865-39.068-99.913-26.946-31.769-65.781-49.133-106.512-54.093-9.749-1.187-19.679-1.611-29.48-.814-12.889,1.048-20.568,11.149-18.176,23.861,1.272,6.76,2.471,13.532,3.543,20.327.446,2.826.859,5.657,1.273,8.488.543,3.71.089.59-.006-.136.273,2.082.535,4.165.78,6.251,1.107,9.427,1.922,18.899,2.181,28.39.197,7.206.088,14.439-.638,21.615-.085.841-.288,1.744-.29,2.588.009-5.406.585-3.856.278-2.141-.25,1.4-.456,2.806-.737,4.201-.497,2.468-1.102,4.917-1.87,7.315-.31.968-.67,1.916-1.008,2.875-1.272,3.615,2.349-4.746.575-1.4-.863,1.628-1.767,3.193-2.717,4.77-.23.381-.597.714-.798,1.108-.112.221,3.526-4.004,2.129-2.784-.513.448-.924,1.064-1.408,1.553-.511.517-1.098.964-1.603,1.482-1.837,1.889,5.023-3.208,1.861-1.477-.596.327-1.438.724-1.952,1.156-1.628,1.366,4.718-1.256,1.602-.645-.784.154-1.769.42-2.523.686-1.914.675-.856-1.523,2.412-.276-.561-.214-2.091.151-2.714.173-1.977.069-3.958-.006-5.934-.073-11.269-.38-22.23.19-33.353,2.329-14.933,2.872-29.711,9.471-42.881,16.833-21.259,11.884-39.045,28.429-52.28,48.859-18.066,27.887-26.145,60.577-29.777,93.22-2.369,21.29-1.38,42.336,2.22,63.433,2.658,15.575,7.377,30.724,9.926,46.31.131.799.092,2.165.44,2.887-1.393-2.895-.453-4.133-.313-2.149.122,1.734.339,3.458.427,5.197.175,3.457.032,6.856-.229,10.303-.24,3.178-.911-.657.247-1.729-.324.3-.422,2.355-.521,2.825-.336,1.597-.739,3.18-1.208,4.744-.488,1.629-1.08,3.213-1.665,4.809-1.277,3.483,1.736-3.266.439-1.086-.65,1.093-1.116,2.337-1.712,3.465-1.166,2.207-2.442,4.362-3.824,6.44.037-.056-3.094,4.282-1.339,1.991,1.681-2.195-1.359,1.552-1.396,1.592-1.537,1.736-3.169,3.387-4.87,4.962-1.362,1.261-3.97,4.451-5.857,4.937l1.888-1.469c-.633.478-1.268.953-1.904,1.425-.624.465-1.251.926-1.875,1.39-2.656,1.977-5.307,3.975-7.891,6.044-3.741,2.995-6.942,6.177-9.875,9.973-29.595,38.306-2.687,88.053,24.214,119.145,18.94,21.891,41.917,39.845,68.119,52.287,85.978,40.825,186.99,31.492,273.369-3.134,6.956-2.788,13.861-5.715,20.707-8.762,9.04-4.024,11.86-17.884,6.762-25.79-6.031-9.354-16.119-11.067-25.79-6.762-1.186.528-2.374,1.053-3.564,1.572-.852.372-5.938,2.532-2.468,1.076,3.496-1.466-1.628.671-2.469,1.016-1.695.694-3.394,1.379-5.097,2.053-7.48,2.959-15.038,5.719-22.667,8.27-19.008,6.356-38.457,11.429-58.191,14.953-2.616.467-5.236.907-7.861,1.319-1.597.25-3.198.478-4.796.72-5.197.787,2.582-.281-.657.093-5.808.67-11.605,1.335-17.436,1.782-12.147.931-24.346,1.21-36.52.758-6.313-.235-12.618-.667-18.903-1.304-1.518-.154-3.034-.318-4.549-.496.329.039-5.637-.748-2.976-.367,2.676.383-3.341-.522-2.995-.467-1.843-.29-3.684-.599-5.521-.926-12.948-2.306-25.739-5.536-38.204-9.733-2.722-.916-5.427-1.879-8.115-2.89-1.552-.584-3.098-1.184-4.638-1.801.051.02-4.847-2.044-2.206-.895,2.595,1.129-2.06-.929-2.056-.927-1.155-.52-2.306-1.05-3.452-1.59-2.422-1.14-4.823-2.322-7.2-3.552-7.828-4.049-15.405-8.591-22.615-13.66-1.449-1.019-2.883-2.058-4.301-3.12-1.238-.927-3.233-3.289.66.529-.549-.539-1.243-.984-1.843-1.469-2.29-1.85-4.531-3.759-6.718-5.73-3.346-3.016-6.539-6.194-9.681-9.421-4.839-4.97-9.487-10.128-13.85-15.522-.616-.761-1.91-1.911-2.243-2.826.937,2.579,1.774,2.358.694.859-1.374-1.907-2.771-3.793-4.097-5.736-2.633-3.857-5.101-7.829-7.336-11.93-1.085-1.991-2.117-4.011-3.083-6.062-.46-.977-2.771-4.678-.295-.492-.553-.935-.853-2.157-1.226-3.18-1.642-4.496-2.755-9.04-3.691-13.725-.907-4.539.24,4.285.006-.332-.045-.897-.126-1.789-.158-2.686-.089-2.492.107-4.934.225-7.417.134-2.806-1.081,4.623.004.284.284-1.134.483-2.286.782-3.418.306-1.157.718-2.279,1.041-3.429,1.115-3.978-1.711,2.807.143-.298.734-1.229,2.92-3.673,3.127-5.032l-1.539,2.045c.481-.567.977-1.12,1.49-1.658.634-.669,1.295-1.312,1.968-1.942.746-.699,5.341-4.145,2.768-2.467-2.737,1.786.392-.286.798-.59.93-.696,1.867-1.384,2.799-2.078,9.668-7.202,18.03-14.469,25.138-24.295,10.414-14.395,16.115-32.268,15.545-50.057-.505-15.761-4.867-31.104-8.368-46.375-.939-4.094-1.828-8.2-2.617-12.326-.397-2.077-.771-4.158-1.115-6.244-.177-1.073-.348-2.146-.509-3.221-.132-.875-.258-1.752-.379-2.628l.322,2.336c-1.436-4.295-1.076-10.386-1.297-14.864-.269-5.456-.307-10.923-.12-16.382.255-7.443,1.024-14.831,1.893-22.222.506-4.305-.749,5.08-.091.67.222-1.487.438-2.975.678-4.459.519-3.215,1.102-6.419,1.754-9.609,1.55-7.575,3.488-15.073,5.871-22.429,1.333-4.115,3.053-8.087,4.424-12.18.878-2.622-1.934,4.306-.169.379.442-.984.873-1.973,1.323-2.954,1.006-2.19,2.06-4.358,3.165-6.5,2.169-4.201,4.534-8.301,7.105-12.269,1.253-1.935,2.555-3.836,3.906-5.703.638-.881,2.5-3.625-.001-.099.813-1.146,1.767-2.215,2.672-3.292,3.251-3.868,6.741-7.533,10.459-10.956,1.82-1.675,3.695-3.285,5.616-4.843,2.334-1.893-3.631,2.514,1.261-.949,1.495-1.058,2.979-2.13,4.499-3.151,4.923-3.308,10.053-6.306,15.335-9.005,2.239-1.144,4.504-2.233,6.795-3.268,1.07-.483,4.014-2.092-.049-.031,1.13-.573,2.386-.973,3.571-1.431,5.192-2.006,10.517-3.829,15.945-5.092.24-.056.48-.11.72-.164,1.833-.409,3.689-.708,5.541-1.019-3.663.616-.109.019.852-.075,4.784-.472,9.579-.556,14.382-.424,8.069.221,16.305.714,24.069-2.005,10.313-3.612,18.789-11.1,23.88-20.771,5.986-11.371,8.138-23.899,9.148-36.588,1.376-17.29-.16-34.806-2.359-51.959-1.73-13.496-3.848-26.918-6.363-40.289-6.059,7.954-12.118,15.907-18.176,23.861,7.6-.618,15.27-.471,22.864.143,1.397.113,2.793.245,4.187.394,1.576.168,6.722,1.166.427-.002,3.554.659,7.135,1.122,10.678,1.862,7.582,1.585,15.052,3.716,22.312,6.419,1.233.459,2.452.952,3.679,1.426,1.778.687,1.082,1.362-.8-.347,1.268,1.152,4.065,1.838,5.586,2.58,4.261,2.08,8.416,4.375,12.441,6.882,1.883,1.172,3.738,2.389,5.561,3.652,1.033.716,2.054,1.447,3.067,2.192.808.594,3.476,2.796.444.313,4.12,3.374,8.104,6.873,11.849,10.664,3.655,3.7,7.129,7.605,10.323,11.712-2.124-2.732.098.216.601.917.803,1.12,1.592,2.25,2.361,3.394,1.496,2.223,2.925,4.492,4.289,6.798,2.328,3.933,4.457,7.986,6.389,12.129.608,1.303,1.278,2.623,1.779,3.972-.198-.534-1.5-3.773-.284-.584.808,2.12,1.619,4.236,2.355,6.383,2.758,8.041,4.828,16.319,6.193,24.709.102.625.182,1.258.294,1.881.63,3.507-.537-4.679-.187-1.475.17,1.563.365,3.122.51,4.689.197,2.136.34,4.276.441,6.419.465,9.835,8.337,19.321,18.85,18.85,9.814-.44,19.348-8.3,18.85-18.85h0Z"/>
  <path d="M551.667,592.167c14.123,0,27.653-12.419,27-27s-11.863-27-27-27c-14.123,0-27.653,12.419-27,27s11.863,27,27,27h0Z"/>
</svg>